<svg xmlns="http://www.w3.org/2000/svg" width="36.586" height="36.586" viewBox="0 0 36.586 36.586"><path d="M0,0H36.586V36.586H0Z" fill="none"/><path d="M27.915,32.488H6.573A4.573,4.573,0,0,1,2,27.915V3.524A1.524,1.524,0,0,1,3.524,2H24.866a1.524,1.524,0,0,1,1.524,1.524V21.817h6.1v6.1A4.573,4.573,0,0,1,27.915,32.488Zm-1.524-7.622v3.049a1.524,1.524,0,0,0,3.049,0V24.866Zm-3.049,4.573V5.049H5.049V27.915a1.524,1.524,0,0,0,1.524,1.524ZM8.1,9.622h12.2v3.049H8.1Zm0,6.1h12.2v3.049H8.1Zm0,6.1H15.72v3.049H8.1Z" transform="translate(1.049 1.049)" fill="#fff"/></svg>