<svg id="Group_2753" data-name="Group 2753" xmlns="http://www.w3.org/2000/svg" width="46.898" height="46.898" viewBox="0 0 46.898 46.898">
  <path id="Path_1470" data-name="Path 1470" d="M0,0H46.9V46.9H0Z" fill="none"/>
  <path id="Path_1471" data-name="Path 1471" d="M31.312,9.816h9.771v3.908H37.174v25.4a1.954,1.954,0,0,1-1.954,1.954H7.862a1.954,1.954,0,0,1-1.954-1.954v-25.4H2V9.816h9.771V3.954A1.954,1.954,0,0,1,13.725,2H29.357a1.954,1.954,0,0,1,1.954,1.954Zm1.954,3.908H9.816V37.174H33.266ZM15.679,5.908V9.816H27.4V5.908Z" transform="translate(1.908 1.908)" fill="#fff"/>
</svg>
