<svg xmlns="http://www.w3.org/2000/svg" width="503.975" height="384.064" viewBox="0 0 503.975 384.064">
  <path id="sign-out-alt-solid" d="M497,273,329,441c-15,15-41,4.5-41-17V328H152a23.942,23.942,0,0,1-24-24V208a23.942,23.942,0,0,1,24-24H288V88c0-21.4,25.9-32,41-17L497,239A24.2,24.2,0,0,1,497,273ZM192,436V396a12.035,12.035,0,0,0-12-12H96a31.966,31.966,0,0,1-32-32V160a31.966,31.966,0,0,1,32-32h84a12.035,12.035,0,0,0,12-12V76a12.035,12.035,0,0,0-12-12H96A96.025,96.025,0,0,0,0,160V352a96.025,96.025,0,0,0,96,96h84A12.035,12.035,0,0,0,192,436Z" transform="translate(0 -63.979)" fill="#fff"/>
</svg>
