<svg
  xmlns="http://www.w3.org/2000/svg"
  width="43.818"
  height="43.817"
  fill="black"
  viewBox="0 0 43.818 43.817"
><g transform="translate(-1.991 -2)"><path
      d="M46.415,50H36.191a2.191,2.191,0,0,0,0,4.382H46.415a2.191,2.191,0,1,0,0-4.382Zm0,2.921H36.191a.73.73,0,0,1,0-1.461H46.415a.73.73,0,0,1,0,1.461Z"
      transform="translate(-8.634 -12.947)"
    /><path
      d="M51.775,41.525a.73.73,0,0,0-.726-.65H49.618V38.684a.73.73,0,0,0-.73-.73h-.73v-.73A2.2,2.2,0,0,0,46.7,35.158v-2.5a2.01,2.01,0,0,0-2.008-2.008h-.365a.548.548,0,0,1-.548-.548v-.456A2.65,2.65,0,0,0,41.128,27h-1a.73.73,0,0,0-.73.73v2.556a1.826,1.826,0,0,1-1.826,1.826H34.282A2.191,2.191,0,0,0,32.091,34.3v.855a2.2,2.2,0,0,0-1.461,2.066v.73H29.9a.73.73,0,0,0-.73.73v2.191h-.759a.73.73,0,0,0-.726.65l-.73,6.549a4.1,4.1,0,0,0,.985,3.207A3.555,3.555,0,0,0,30.6,52.56H48.858a3.556,3.556,0,0,0,2.658-1.278,4.09,4.09,0,0,0,.989-3.184Zm-19.684-4.3a.73.73,0,0,1,.73-.73h3.651V35.033H33.552V34.3a.73.73,0,0,1,.73-.73h3.286a3.29,3.29,0,0,0,3.286-3.286V28.461h.274a1.188,1.188,0,0,1,1.187,1.187V30.1a2.01,2.01,0,0,0,2.008,2.008h.365a.548.548,0,0,1,.548.548v2.373H40.124v1.461h5.842a.73.73,0,0,1,.73.73v.73H32.091Zm-1.461,2.191H48.157v1.461H30.631Zm19.782,10.91a2.073,2.073,0,0,1-1.555.774H30.6a2.071,2.071,0,0,1-1.555-.775,2.625,2.625,0,0,1-.64-2.066l.657-5.923H50.395l.661,5.945a2.622,2.622,0,0,1-.643,2.044Z"
      transform="translate(-6.725 -6.743)"
    /><path
      d="M56.877,51.8l-1.432.286L56,54.867H54v1.461h2a1.461,1.461,0,0,0,1.431-1.748Z"
      transform="translate(-14.028 -13.432)"
    /><path
      d="M14.417,45.816a3.749,3.749,0,0,0,2.72-1.133,3.417,3.417,0,0,0,.927-2.562L16.6,17.293V14.415a2.191,2.191,0,0,0-2.191-2.191V10.033a.73.73,0,0,0-.73-.73h-.73V6.382h5.842a.73.73,0,0,0,.73-.73V4.191a.73.73,0,0,0-.554-.708L13.129,2.022A.719.719,0,0,0,12.952,2H7.171A2.232,2.232,0,0,0,5.028,3.493,2.2,2.2,0,0,0,7.11,6.382V9.3h-.73a.73.73,0,0,0-.73.73v2.191a2.191,2.191,0,0,0-2.191,2.191v2.934L2,42.126a3.417,3.417,0,0,0,.929,2.556,3.75,3.75,0,0,0,2.727,1.134Zm-7.9-41.2a.744.744,0,0,1-.1-.686.773.773,0,0,1,.75-.475h5.691l5.2,1.3v.16H7.11a.725.725,0,0,1-.59-.3Zm4.972,1.761V9.3H8.57V6.382ZM7.11,10.763h5.842v1.461H7.11ZM4.919,14.415a.73.73,0,0,1,.73-.73h8.763a.73.73,0,0,1,.73.73v2.191H4.919Zm-.037,3.651H15.188L16,31.941H4.065ZM3.98,33.4H16.092l.172,2.921H3.807Zm-.521,8.806.263-4.425H16.348l.26,4.42a1.942,1.942,0,0,1-.531,1.476,2.285,2.285,0,0,1-1.661.677H5.653a2.285,2.285,0,0,1-1.662-.678,1.937,1.937,0,0,1-.533-1.47Z"
      transform="translate(0 0)"
    /><path
      d="M8.73,30.382h5.842a.73.73,0,0,0,.73-.73V26.73a.73.73,0,0,0-.73-.73H8.73a.73.73,0,0,0-.73.73v2.921A.73.73,0,0,0,8.73,30.382Zm.73-2.921h4.382v1.461H9.461Z"
      transform="translate(-1.621 -6.473)"
    /><path
      d="M8.921,55.191H7.461V53H6v2.921a.73.73,0,0,0,.73.73H8.921Z"
      transform="translate(-1.081 -13.756)"
    /><rect width="2" height="1" transform="translate(8.9 41.908)" /><rect
      width="8"
      height="2"
      transform="translate(5.9 24.908)"
    /><rect width="3" height="2" transform="translate(5.9 27.908)" /><rect
      width="4"
      height="2"
      transform="translate(10.9 27.908)"
    /></g></svg>
