<svg
  xmlns="http://www.w3.org/2000/svg"
  width="52.426"
  height="55.128"
  viewBox="0 0 52.426 55.128"
>
  <g
    id="Path_1092"
    data-name="Path 1092"
    transform="translate(-236.574)"
    fill="#000"
  >
    <path
      d="M 288.5 54.35204696655273 C 288.064697265625 54.02396774291992 287.2449951171875 53.32333374023438 285.7163696289062 51.82988357543945 C 284.0457458496094 50.19768142700195 281.8099060058594 47.90019226074219 278.8810729980469 44.80615234375 C 273.4385681152344 39.05663299560547 266.4010314941406 31.39338302612305 259.59521484375 23.98244285583496 C 251.5548553466797 15.22717189788818 243.2541046142578 6.18838357925415 237.7563171386719 0.5000025033950806 L 284 0.5000025033950806 C 286.4813232421875 0.5000025033950806 288.5 2.518692493438721 288.5 5.000002384185791 L 288.5 54.35204696655273 Z"
      stroke="none"
    />
    <path
      d="M 238.9319458007812 1.000003814697266 C 244.4193420410156 6.718009948730469 252.3093566894531 15.30956268310547 259.9635009765625 23.64424133300781 C 266.6694030761719 30.94640159606934 273.6036376953125 38.49717330932617 279.0074462890625 44.21220397949219 C 281.9127807617188 47.28486251831055 284.1455688476562 49.58511352539062 285.8333435058594 51.24441146850586 C 286.81201171875 52.20656585693359 287.5074462890625 52.85346221923828 288 53.28840255737305 L 288 5.000003814697266 C 288 2.794391632080078 286.2056274414062 1.000003814697266 284 1.000003814697266 L 238.9319458007812 1.000003814697266 M 236.57421875 3.814697265625e-06 L 284 3.814697265625e-06 C 286.7614135742188 3.814697265625e-06 289 2.238571166992188 289 5.000003814697266 L 289 55.00000381469727 C 289 55.08612823486328 288.9630126953125 55.12832641601562 288.8916931152344 55.12832641601562 C 286.6761474609375 55.12832641601562 250.9344177246094 14.7270622253418 236.57421875 3.814697265625e-06 Z"
      stroke="none"
      fill="#000"
    />
  </g>
</svg>
