<svg xmlns="http://www.w3.org/2000/svg" width="38.125" height="38.125" viewBox="0 0 38.125 38.125"><path d="M0,0H38.125V38.125H0Z" fill="none"/><path d="M16.682,21.656v3.178A9.522,9.522,0,0,0,7.17,34.368H4A12.7,12.7,0,0,1,16.682,21.656Zm0-1.589a9.534,9.534,0,1,1,9.511-9.534A9.52,9.52,0,0,1,16.682,20.067Zm0-3.178a6.356,6.356,0,1,0-6.341-6.356A6.347,6.347,0,0,0,16.682,16.889ZM20.8,29.3a5.59,5.59,0,0,1,0-2.579l-1.573-.91,1.585-2.752,1.573.91a5.539,5.539,0,0,1,2.227-1.29V20.862h3.17v1.819a5.533,5.533,0,0,1,2.227,1.29l1.573-.91,1.585,2.752-1.573.91a5.59,5.59,0,0,1,0,2.577l1.573.91-1.585,2.752-1.573-.91a5.539,5.539,0,0,1-2.227,1.29v1.819h-3.17V33.343a5.539,5.539,0,0,1-2.227-1.29l-1.573.91-1.585-2.752Zm5.4,1.093a2.383,2.383,0,1,0-2.378-2.383A2.381,2.381,0,0,0,26.193,30.4Z" transform="translate(2.421 0.585)" fill="#fff"/></svg>