<svg xmlns="http://www.w3.org/2000/svg" width="38.895" height="42.32" viewBox="0 0 38.895 42.32"><g transform="translate(-20.72 0)"><g transform="translate(22.925 0)"><g transform="translate(0 0)"><path d="M75.943.151a1.247,1.247,0,0,0-1.624.39L62.048,17.167,49.683.605A1.247,1.247,0,0,0,48.057.224,1.247,1.247,0,0,0,47.48,1.8q.012.031.027.06L51.12,8.928a.7.7,0,1,0,1.242-.635l-2.87-5.612L69.56,29.56a.7.7,0,0,0,1.118-.834l-4.638-6.213L76.5,1.787c.01-.02.019-.04.027-.06A1.247,1.247,0,0,0,75.943.151ZM65.107,21.264l-2.188-2.93,11.6-15.716Z" transform="translate(-47.388 0)" fill="#fff"/></g></g><g transform="translate(46.014 32.824)"><path d="M332.255,398.426a3.034,3.034,0,1,0-.764,4.225A3.016,3.016,0,0,0,332.255,398.426ZM330.7,401.5a1.641,1.641,0,1,1,.413-2.284A1.643,1.643,0,0,1,330.7,401.5Z" transform="translate(-326.726 -397.119)" fill="#fff"/></g><g transform="translate(23.189 32.884)"><g transform="translate(0)"><path d="M56.611,400.327a3.035,3.035,0,1,0-2.991,3.592,3.063,3.063,0,0,0,.562-.052,3.036,3.036,0,0,0,2.429-3.54Zm-1.631,1.484a1.641,1.641,0,1,1,.26-1.229A1.63,1.63,0,0,1,54.979,401.811Z" transform="translate(-50.591 -397.846)" fill="#fff"/></g></g><g transform="translate(20.72 10.408)"><g transform="translate(0)"><path d="M59.2,154.6a2.022,2.022,0,0,0-1.512-.794,16.543,16.543,0,0,1-3.481-.525,5.577,5.577,0,0,0,.254-.931,5.5,5.5,0,0,0-7.393-6.114.7.7,0,0,0,.5,1.3,4.11,4.11,0,0,1,5.1,5.776.694.694,0,0,0-.067.122,4.11,4.11,0,1,1-6.688-4.722.7.7,0,0,0-.008-.912l-7.6-8.644a.7.7,0,0,0-.563-.236l-.21.012a.7.7,0,0,0-.324.018l-1.524.085L29.174,126.3a.7.7,0,1,0-1.242.635l5.685,11.118-5.956,8.07a5.506,5.506,0,1,0,3.108,2.212l6.832-7.866,6.884,7.83a5.5,5.5,0,0,0,3.583,8.492,5.574,5.574,0,0,0,.991.089,5.448,5.448,0,0,0,2.609-.665c.729.639,2.417,1.613,5.932,1.617h0a2.025,2.025,0,0,0,1.963-1.578A2,2,0,0,0,59.2,154.6Zm-29.86-6.754a.7.7,0,0,0,0,.911,4.111,4.111,0,1,1-1.664-1.168.7.7,0,0,0,.808-.238l5.842-7.915.327.639a.7.7,0,0,0,.66.379l.472-.026Zm28.861,8.1a.621.621,0,0,1-.6.484h0a8.373,8.373,0,0,1-4.755-1.079,5.46,5.46,0,0,0,.7-.814,17.578,17.578,0,0,0,4.072.657.63.63,0,0,1,.472.247A.6.6,0,0,1,58.205,155.952Z" transform="translate(-20.72 -125.919)" fill="#fff"/></g></g></g></svg>