<svg xmlns="http://www.w3.org/2000/svg" width="640" height="448" viewBox="0 0 640 448">
  <path id="cloud-upload-alt-solid" d="M537.6,226.6A96.114,96.114,0,0,0,448,96a95.51,95.51,0,0,0-53.3,16.2A160.013,160.013,0,0,0,96,192c0,2.7.1,5.4.2,8.1A144.038,144.038,0,0,0,144,480H512a127.992,127.992,0,0,0,25.6-253.4ZM393.4,288H328V400a16.047,16.047,0,0,1-16,16H264a16.047,16.047,0,0,1-16-16V288H182.6a15.971,15.971,0,0,1-11.3-27.3L276.7,155.3a16.055,16.055,0,0,1,22.6,0L404.7,260.7c10.1,10.1,2.9,27.3-11.3,27.3Z" transform="translate(0 -32)" fill="#fff"/>
</svg>
